<?xml version="1.0" encoding="UTF-8"?>
<!DOCTYPE svg PUBLIC "-//W3C//DTD SVG 1.1//EN" "http://www.w3.org/Graphics/SVG/1.1/DTD/svg11.dtd">
<svg xmlns="http://www.w3.org/2000/svg" version="1.1" width="439px" height="568px" style="shape-rendering:geometricPrecision; text-rendering:geometricPrecision; image-rendering:optimizeQuality; fill-rule:evenodd; clip-rule:evenodd" xmlns:xlink="http://www.w3.org/1999/xlink">
<g><path style="opacity:1" fill="#fbfcfc" d="M 330.5,201.5 C 330.5,242.167 330.5,282.833 330.5,323.5C 306.833,323.5 283.167,323.5 259.5,323.5C 259.5,282.833 259.5,242.167 259.5,201.5C 283.167,201.5 306.833,201.5 330.5,201.5 Z M 308.5,245.5 C 310.214,246.738 312.214,247.405 314.5,247.5C 317.944,249.736 321.277,252.236 324.5,255C 323.619,255.708 322.953,256.542 322.5,257.5C 319.944,258.543 317.777,260.21 316,262.5C 315.617,261.944 315.117,261.611 314.5,261.5C 313.395,260.4 312.062,259.733 310.5,259.5C 304.557,255.132 298.224,254.466 291.5,257.5C 289.62,257.229 288.287,257.896 287.5,259.5C 284.5,260.5 282.5,262.5 281.5,265.5C 279.896,266.287 279.229,267.62 279.5,269.5C 276.921,275.409 277.088,281.409 280,287.5C 280.383,288.056 280.883,288.389 281.5,288.5C 281.738,290.404 282.738,291.738 284.5,292.5C 284.973,293.906 285.973,294.573 287.5,294.5C 290.851,296.893 294.684,297.893 299,297.5C 302.986,297.567 306.819,296.901 310.5,295.5C 311.49,289.355 311.823,283.022 311.5,276.5C 315.5,276.5 319.5,276.5 323.5,276.5C 323.666,284.84 323.5,293.173 323,301.5C 322.283,302.044 321.783,302.711 321.5,303.5C 318.256,304.463 315.256,305.796 312.5,307.5C 301.59,310.584 290.924,309.917 280.5,305.5C 280.027,304.094 279.027,303.427 277.5,303.5C 276.738,301.738 275.404,300.738 273.5,300.5C 272.214,297.883 270.547,295.55 268.5,293.5C 268.34,291.847 267.674,290.514 266.5,289.5C 265.985,287.106 265.319,284.772 264.5,282.5C 264.232,276.051 264.898,269.717 266.5,263.5C 267.338,263.158 267.672,262.492 267.5,261.5C 268.906,261.027 269.573,260.027 269.5,258.5C 273.237,254.131 277.57,250.465 282.5,247.5C 291.035,244.853 299.702,244.187 308.5,245.5 Z"/></g>
<g><path style="opacity:1" fill="#f8fafc" d="M 182.5,214.5 C 206.833,214.5 231.167,214.5 255.5,214.5C 255.5,251.167 255.5,287.833 255.5,324.5C 231.167,324.5 206.833,324.5 182.5,324.5C 182.5,287.833 182.5,251.167 182.5,214.5 Z M 244.5,245.5 C 244.665,249.182 244.499,252.848 244,256.5C 236.833,256.806 229.499,256.472 222,255.5C 218.346,256.062 214.846,256.729 211.5,257.5C 210.167,261.833 210.167,266.167 211.5,270.5C 220.986,271.494 230.652,271.827 240.5,271.5C 240.5,274.833 240.5,278.167 240.5,281.5C 230.652,281.173 220.986,281.506 211.5,282.5C 210.167,287.167 210.167,291.833 211.5,296.5C 222.654,297.495 233.988,297.828 245.5,297.5C 245.5,301.167 245.5,304.833 245.5,308.5C 229.5,308.5 213.5,308.5 197.5,308.5C 197.333,287.497 197.5,266.497 198,245.5C 213.556,246.156 229.056,246.156 244.5,245.5 Z"/></g>
<g><path style="opacity:0.847" fill="#d4e0f1" d="M 330.5,200.5 C 330.5,200.833 330.5,201.167 330.5,201.5C 306.833,201.5 283.167,201.5 259.5,201.5C 259.5,242.167 259.5,282.833 259.5,323.5C 283.167,323.5 306.833,323.5 330.5,323.5C 306.672,324.498 282.672,324.831 258.5,324.5C 258.5,283.167 258.5,241.833 258.5,200.5C 282.5,200.5 306.5,200.5 330.5,200.5 Z"/></g>
<g><path style="opacity:0.22" fill="#48607e" d="M 331.5,200.5 C 331.167,200.5 330.833,200.5 330.5,200.5C 306.5,200.5 282.5,200.5 258.5,200.5C 258.5,241.833 258.5,283.167 258.5,324.5C 258.5,324.833 258.5,325.167 258.5,325.5C 258.165,288.322 257.165,251.322 255.5,214.5C 231.167,214.5 206.833,214.5 182.5,214.5C 206.997,213.668 231.663,213.168 256.5,213C 257.467,208.599 257.8,204.099 257.5,199.5C 282.339,199.169 307.006,199.502 331.5,200.5 Z"/></g>
<g><path style="opacity:0.48" fill="#7780a0" d="M 244.5,245.5 C 229.056,246.156 213.556,246.156 198,245.5C 197.5,266.497 197.333,287.497 197.5,308.5C 196.503,287.34 196.169,266.007 196.5,244.5C 212.675,244.17 228.675,244.504 244.5,245.5 Z"/></g>
<g><path style="opacity:0.91" fill="#7f92af" d="M 308.5,245.5 C 311.01,245.054 313.01,245.72 314.5,247.5C 312.214,247.405 310.214,246.738 308.5,245.5 Z"/></g>
<g><path style="opacity:0.212" fill="#687c97" d="M 308.5,245.5 C 299.702,244.187 291.035,244.853 282.5,247.5C 285.135,245.672 288.135,244.505 291.5,244C 296.167,243.333 300.833,243.333 305.5,244C 306.737,244.232 307.737,244.732 308.5,245.5 Z"/></g>
<g><path style="opacity:0.381" fill="#6e7e99" d="M 244.5,245.5 C 245.483,249.298 245.817,253.298 245.5,257.5C 234.167,257.5 222.833,257.5 211.5,257.5C 214.846,256.729 218.346,256.062 222,255.5C 229.499,256.472 236.833,256.806 244,256.5C 244.499,252.848 244.665,249.182 244.5,245.5 Z"/></g>
<g><path style="opacity:0.467" fill="#6f839f" d="M 310.5,259.5 C 304.319,257.748 297.986,257.081 291.5,257.5C 298.224,254.466 304.557,255.132 310.5,259.5 Z"/></g>
<g><path style="opacity:0.118" fill="#475363" d="M 269.5,258.5 C 269.573,260.027 268.906,261.027 267.5,261.5C 267.427,259.973 268.094,258.973 269.5,258.5 Z"/></g>
<g><path style="opacity:0.647" fill="#75869e" d="M 322.5,257.5 C 320.818,260.015 318.652,262.015 316,263.5C 314.97,263.164 314.47,262.497 314.5,261.5C 315.117,261.611 315.617,261.944 316,262.5C 317.777,260.21 319.944,258.543 322.5,257.5 Z"/></g>
<g><path style="opacity:0.627" fill="#748ba9" d="M 287.5,259.5 C 285.833,261.833 283.833,263.833 281.5,265.5C 282.5,262.5 284.5,260.5 287.5,259.5 Z"/></g>
<g><path style="opacity:0.297" fill="#64778f" d="M 330.5,200.5 C 330.833,200.5 331.167,200.5 331.5,200.5C 331.5,242.167 331.5,283.833 331.5,325.5C 307.167,325.5 282.833,325.5 258.5,325.5C 258.5,325.167 258.5,324.833 258.5,324.5C 282.672,324.831 306.672,324.498 330.5,323.5C 330.5,282.833 330.5,242.167 330.5,201.5C 330.5,201.167 330.5,200.833 330.5,200.5 Z"/></g>
<g><path style="opacity:0.831" fill="#8194af" d="M 279.5,269.5 C 279.081,275.986 279.748,282.319 281.5,288.5C 280.883,288.389 280.383,288.056 280,287.5C 277.088,281.409 276.921,275.409 279.5,269.5 Z"/></g>
<g><path style="opacity:0.204" fill="#5b6e8e" d="M 266.5,263.5 C 264.898,269.717 264.232,276.051 264.5,282.5C 263.352,278.019 263.185,273.352 264,268.5C 264.374,266.509 265.207,264.842 266.5,263.5 Z"/></g>
<g><path style="opacity:0.247" fill="#586d8a" d="M 211.5,270.5 C 221.5,270.5 231.5,270.5 241.5,270.5C 241.5,274.5 241.5,278.5 241.5,282.5C 231.5,282.5 221.5,282.5 211.5,282.5C 220.986,281.506 230.652,281.173 240.5,281.5C 240.5,278.167 240.5,274.833 240.5,271.5C 230.652,271.827 220.986,271.494 211.5,270.5 Z"/></g>
<g><path style="opacity:0.507" fill="#7588a1" d="M 321.5,303.5 C 321.783,302.711 322.283,302.044 323,301.5C 323.5,293.173 323.666,284.84 323.5,276.5C 319.5,276.5 315.5,276.5 311.5,276.5C 311.823,283.022 311.49,289.355 310.5,295.5C 310.5,288.833 310.5,282.167 310.5,275.5C 315.167,275.5 319.833,275.5 324.5,275.5C 324.666,284.506 324.5,293.506 324,302.5C 323.329,303.252 322.496,303.586 321.5,303.5 Z"/></g>
<g><path style="opacity:0.094" fill="#344857" d="M 266.5,289.5 C 267.674,290.514 268.34,291.847 268.5,293.5C 266.896,292.713 266.229,291.38 266.5,289.5 Z"/></g>
<g><path style="opacity:0.337" fill="#5d699c" d="M 284.5,292.5 C 286.027,292.427 287.027,293.094 287.5,294.5C 285.973,294.573 284.973,293.906 284.5,292.5 Z"/></g>
<g><path style="opacity:0.114" fill="#374e72" d="M 182.5,214.5 C 182.5,251.167 182.5,287.833 182.5,324.5C 181.84,291.931 181.174,259.931 180.5,228.5C 179.833,228.167 179.167,227.833 178.5,227.5C 154.833,227.5 131.167,227.5 107.5,227.5C 107.167,227.5 106.833,227.5 106.5,227.5C 131.328,226.502 156.328,226.169 181.5,226.5C 181.183,222.298 181.517,218.298 182.5,214.5 Z"/></g>
<g><path style="opacity:0.402" fill="#6d7e99" d="M 211.5,296.5 C 223.167,296.5 234.833,296.5 246.5,296.5C 246.817,300.702 246.483,304.702 245.5,308.5C 245.5,304.833 245.5,301.167 245.5,297.5C 233.988,297.828 222.654,297.495 211.5,296.5 Z"/></g>
<g><path style="opacity:0.569" fill="#697c9c" d="M 268.5,293.5 C 270.547,295.55 272.214,297.883 273.5,300.5C 270.402,299.137 268.735,296.803 268.5,293.5 Z"/></g>
<g><path style="opacity:0.012" fill="#496c7f" d="M 273.5,300.5 C 275.404,300.738 276.738,301.738 277.5,303.5C 275.596,303.262 274.262,302.262 273.5,300.5 Z"/></g>
<g><path style="opacity:0.2" fill="#546a80" d="M 277.5,304.5 C 277.5,304.167 277.5,303.833 277.5,303.5C 279.027,303.427 280.027,304.094 280.5,305.5C 279.391,305.443 278.391,305.11 277.5,304.5 Z"/></g>
<g><path style="opacity:1" fill="#bac8d7" d="M 277.5,304.5 C 278.391,305.11 279.391,305.443 280.5,305.5C 290.924,309.917 301.59,310.584 312.5,307.5C 311.319,309.067 309.653,309.901 307.5,310C 299.569,310.283 291.735,310.45 284,310.5C 282.22,309.406 280.386,308.406 278.5,307.5C 277.873,306.583 277.539,305.583 277.5,304.5 Z"/></g>
<g><path style="opacity:0.574" fill="#8398b1" d="M 106.5,227.5 C 106.833,227.5 107.167,227.5 107.5,227.5C 107.5,259.5 107.5,291.5 107.5,323.5C 131.167,323.5 154.833,323.5 178.5,323.5C 178.5,291.5 178.5,259.5 178.5,227.5C 179.167,227.833 179.833,228.167 180.5,228.5C 179.7,260.389 179.367,292.389 179.5,324.5C 154.833,324.5 130.167,324.5 105.5,324.5C 105.168,291.996 105.502,259.662 106.5,227.5 Z M 147.5,246.5 C 149.488,266.806 150.155,287.473 149.5,308.5C 145.167,308.5 140.833,308.5 136.5,308.5C 136.333,287.497 136.5,266.497 137,245.5C 140.342,245.627 143.842,245.961 147.5,246.5 Z"/></g>
<g><path style="opacity:1" fill="#fdfdfe" d="M 107.5,227.5 C 131.167,227.5 154.833,227.5 178.5,227.5C 178.5,259.5 178.5,291.5 178.5,323.5C 154.833,323.5 131.167,323.5 107.5,323.5C 107.5,291.5 107.5,259.5 107.5,227.5 Z M 147.5,246.5 C 149.488,266.806 150.155,287.473 149.5,308.5C 145.167,308.5 140.833,308.5 136.5,308.5C 136.333,287.497 136.5,266.497 137,245.5C 140.342,245.627 143.842,245.961 147.5,246.5 Z"/></g>
<g><path style="opacity:0.11" fill="#354e6d" d="M 147.5,246.5 C 148.209,245.596 149.209,245.263 150.5,245.5C 150.831,266.673 150.497,287.673 149.5,308.5C 150.155,287.473 149.488,266.806 147.5,246.5 Z"/></g>
<g><path style="opacity:0.447" fill="#7893af" d="M 150.5,245.5 C 149.209,245.263 148.209,245.596 147.5,246.5C 143.842,245.961 140.342,245.627 137,245.5C 136.5,266.497 136.333,287.497 136.5,308.5C 135.503,287.34 135.169,266.007 135.5,244.5C 140.695,244.179 145.695,244.513 150.5,245.5 Z"/></g>
<g><path style="opacity:0.997" fill="#dce1e9" d="M 160.5,336.5 C 163.532,340.061 166.032,344.061 168,348.5C 168.941,346.273 170.108,344.273 171.5,342.5C 172.906,342.027 173.573,341.027 173.5,339.5C 175.048,339.179 175.715,338.179 175.5,336.5C 176.833,336.5 178.167,336.5 179.5,336.5C 179.5,343.5 179.5,350.5 179.5,357.5C 177.833,357.5 176.167,357.5 174.5,357.5C 174.665,354.15 174.498,350.817 174,347.5C 169.946,358.145 165.946,358.145 162,347.5C 161.502,350.817 161.335,354.15 161.5,357.5C 159.833,357.5 158.167,357.5 156.5,357.5C 156.5,350.5 156.5,343.5 156.5,336.5C 157.833,336.5 159.167,336.5 160.5,336.5 Z"/></g>
<g><path style="opacity:0.998" fill="#f7fbfc" d="M 235.5,336.5 C 239.555,336.176 243.555,336.509 247.5,337.5C 246.757,338.182 246.091,338.849 245.5,339.5C 243.5,339.5 241.5,339.5 239.5,339.5C 239.5,344.167 239.5,348.833 239.5,353.5C 242.167,353.5 244.833,353.5 247.5,353.5C 251.009,351.926 252.009,352.926 250.5,356.5C 245.695,357.487 240.695,357.821 235.5,357.5C 235.5,350.5 235.5,343.5 235.5,336.5 Z"/></g>
<g><path style="opacity:0.997" fill="#c5cdda" d="M 285.5,340.5 C 283.73,339.615 282.73,340.448 282.5,343C 283.148,344.44 283.481,345.94 283.5,347.5C 282.15,346.517 281.15,345.184 280.5,343.5C 279.289,344.274 279.289,345.107 280.5,346C 279.473,346.513 278.473,347.013 277.5,347.5C 277.66,345.801 277.494,344.134 277,342.5C 275.961,343.71 274.794,344.71 273.5,345.5C 274.149,342.055 275.482,338.889 277.5,336C 279.81,335.503 282.143,335.337 284.5,335.5C 284.629,337.216 284.962,338.883 285.5,340.5 Z"/></g>
<g><path style="opacity:0.667" fill="#7b90a9" d="M 113.5,336.5 C 112.167,338.5 110.5,340.167 108.5,341.5C 109.167,338.833 110.833,337.167 113.5,336.5 Z"/></g>
<g><path style="opacity:0.999" fill="#d1d9e3" d="M 223.5,335.5 C 224.791,336.473 224.791,337.473 223.5,338.5C 221.031,339.168 218.698,339.835 216.5,340.5C 214.394,342.719 213.394,345.385 213.5,348.5C 212.698,347.048 212.198,345.382 212,343.5C 211.625,346 210.792,348.333 209.5,350.5C 211.756,351.421 212.756,353.088 212.5,355.5C 210.376,354.969 208.876,353.635 208,351.5C 205.96,339.041 211.127,333.708 223.5,335.5 Z"/></g>
<g><path style="opacity:0.996" fill="#9eabbe" d="M 223.5,335.5 C 225.674,335.75 227.341,336.75 228.5,338.5C 227.5,338.5 226.5,338.5 225.5,338.5C 226.368,342.808 226.534,347.141 226,351.5C 222.215,355.395 218.715,355.395 215.5,351.5C 218.171,353.426 220.837,353.592 223.5,352C 227.684,344.202 225.351,340.368 216.5,340.5C 218.698,339.835 221.031,339.168 223.5,338.5C 224.791,337.473 224.791,336.473 223.5,335.5 Z"/></g>
<g><path style="opacity:0.616" fill="#7284a0" d="M 265.5,357.5 C 265.5,350.5 265.5,343.5 265.5,336.5C 264.167,336.5 262.833,336.5 261.5,336.5C 261.5,343.5 261.5,350.5 261.5,357.5C 259.537,350.576 258.87,343.243 259.5,335.5C 261.833,335.5 264.167,335.5 266.5,335.5C 266.825,343.019 266.492,350.352 265.5,357.5 Z"/></g>
<g><path style="opacity:0.999" fill="#f9fdfe" d="M 265.5,357.5 C 264.167,357.5 262.833,357.5 261.5,357.5C 261.5,350.5 261.5,343.5 261.5,336.5C 262.833,336.5 264.167,336.5 265.5,336.5C 265.5,343.5 265.5,350.5 265.5,357.5 Z"/></g>
<g><path style="opacity:1" fill="#e8eef3" d="M 285.5,340.5 C 286.763,344.271 286.596,347.937 285,351.5C 281.73,352.132 278.563,352.799 275.5,353.5C 275.461,354.583 275.127,355.583 274.5,356.5C 272.235,357.647 269.902,357.814 267.5,357C 269.672,353.153 271.672,349.319 273.5,345.5C 274.794,344.71 275.961,343.71 277,342.5C 277.494,344.134 277.66,345.801 277.5,347.5C 279.5,348.833 281.5,348.833 283.5,347.5C 283.481,345.94 283.148,344.44 282.5,343C 282.73,340.448 283.73,339.615 285.5,340.5 Z M 283.5,347.5 C 281.5,348.833 279.5,348.833 277.5,347.5C 278.473,347.013 279.473,346.513 280.5,346C 279.289,345.107 279.289,344.274 280.5,343.5C 281.15,345.184 282.15,346.517 283.5,347.5 Z"/></g>
<g><path style="opacity:0.192" fill="#4a6879" d="M 173.5,339.5 C 173.573,341.027 172.906,342.027 171.5,342.5C 171.427,340.973 172.094,339.973 173.5,339.5 Z"/></g>
<g><path style="opacity:0.518" fill="#5f7a8e" d="M 203.5,338.5 C 206.167,340.5 206.167,342.5 203.5,344.5C 203.5,342.5 203.5,340.5 203.5,338.5 Z"/></g>
<g><path style="opacity:1" fill="#e1e8ee" d="M 115.5,341.5 C 114.504,341.414 113.671,341.748 113,342.5C 112.211,344.712 112.378,346.712 113.5,348.5C 116.66,354.076 120.66,354.743 125.5,350.5C 127.321,351.728 128.321,353.394 128.5,355.5C 126.703,356.73 124.703,357.396 122.5,357.5C 120.5,357.5 118.5,357.5 116.5,357.5C 114.447,357.598 112.78,356.931 111.5,355.5C 109.672,351.015 108.672,346.348 108.5,341.5C 110.5,340.167 112.167,338.5 113.5,336.5C 119.04,333.63 124.04,334.463 128.5,339C 128.046,340.622 127.046,341.788 125.5,342.5C 122.291,340.406 118.957,340.073 115.5,341.5 Z"/></g>
<g><path style="opacity:0.604" fill="#768ca1" d="M 160.5,336.5 C 159.167,336.5 157.833,336.5 156.5,336.5C 156.5,343.5 156.5,350.5 156.5,357.5C 155.186,355.085 154.519,352.252 154.5,349C 155.048,344.344 155.048,339.844 154.5,335.5C 156.735,335.205 158.735,335.539 160.5,336.5 Z"/></g>
<g><path style="opacity:1" fill="#d5dbe5" d="M 235.5,336.5 C 235.5,336.167 235.5,335.833 235.5,335.5C 240.179,335.334 244.845,335.501 249.5,336C 251.881,336.223 253.547,337.39 254.5,339.5C 255.373,343.768 255.706,348.102 255.5,352.5C 254.415,354.587 252.749,355.92 250.5,356.5C 252.009,352.926 251.009,351.926 247.5,353.5C 247.5,353.167 247.5,352.833 247.5,352.5C 248.458,352.047 249.292,351.381 250,350.5C 250.667,347.833 250.667,345.167 250,342.5C 248.67,341.418 247.17,340.751 245.5,340.5C 245.5,340.167 245.5,339.833 245.5,339.5C 246.091,338.849 246.757,338.182 247.5,337.5C 243.555,336.509 239.555,336.176 235.5,336.5 Z"/></g>
<g><path style="opacity:0.999" fill="#eef4f7" d="M 146.5,353.5 C 144.866,352.839 143.033,352.506 141,352.5C 138.705,352.547 136.871,353.213 135.5,354.5C 135.5,355.5 135.5,356.5 135.5,357.5C 132.612,358.01 130.279,357.344 128.5,355.5C 129.5,354.167 130.5,352.833 131.5,351.5C 134.165,349.165 135.498,346.165 135.5,342.5C 139.484,342.472 140.484,344.139 138.5,347.5C 137.957,347.56 137.624,347.893 137.5,348.5C 139.765,349.647 142.098,349.814 144.5,349C 145.795,346.755 145.128,345.255 142.5,344.5C 142.34,342.801 142.506,341.134 143,339.5C 143.414,339.957 143.914,340.291 144.5,340.5C 146.234,345.027 147.901,349.36 149.5,353.5C 148.5,353.5 147.5,353.5 146.5,353.5 Z M 142.5,344.5 C 142.539,345.583 142.873,346.583 143.5,347.5C 141.701,348.788 140.035,348.788 138.5,347.5C 139.793,346.158 140.626,344.491 141,342.5C 141.278,343.416 141.778,344.082 142.5,344.5 Z"/></g>
<g><path style="opacity:0.999" fill="#b6c0d0" d="M 203.5,338.5 C 203.5,340.5 203.5,342.5 203.5,344.5C 203.389,345.117 203.056,345.617 202.5,346C 206.457,348.673 207.124,351.839 204.5,355.5C 203.15,356.95 201.484,357.617 199.5,357.5C 201.184,355.983 202.517,354.15 203.5,352C 203.167,351.5 202.833,351 202.5,350.5C 201.735,351.612 200.735,352.279 199.5,352.5C 199.5,351.5 199.5,350.5 199.5,349.5C 196.5,349.5 193.5,349.5 190.5,349.5C 190.756,347.224 192.09,346.057 194.5,346C 192.563,345.878 191.23,345.045 190.5,343.5C 193.167,343.5 195.833,343.5 198.5,343.5C 198.5,342.5 198.5,341.5 198.5,340.5C 197.791,339.596 196.791,339.263 195.5,339.5C 196.718,338.839 198.051,338.172 199.5,337.5C 194.88,336.507 190.214,336.173 185.5,336.5C 185.5,343.5 185.5,350.5 185.5,357.5C 184.508,350.352 184.175,343.019 184.5,335.5C 189.844,335.334 195.177,335.501 200.5,336C 201.942,336.377 202.942,337.21 203.5,338.5 Z M 190.5,340.5 C 193.137,341.63 195.803,341.63 198.5,340.5C 198.5,341.5 198.5,342.5 198.5,343.5C 195.833,343.5 193.167,343.5 190.5,343.5C 190.5,342.5 190.5,341.5 190.5,340.5 Z M 190.5,349.5 C 193.5,349.5 196.5,349.5 199.5,349.5C 199.5,350.5 199.5,351.5 199.5,352.5C 196.57,353.299 193.57,353.632 190.5,353.5C 190.5,352.167 190.5,350.833 190.5,349.5 Z"/></g>
<g><path style="opacity:0.196" fill="#3c4c62" d="M 190.5,340.5 C 191.919,339.549 193.585,339.216 195.5,339.5C 196.791,339.263 197.791,339.596 198.5,340.5C 195.803,341.63 193.137,341.63 190.5,340.5 Z"/></g>
<g><path style="opacity:0.997" fill="#f6fafc" d="M 195.5,339.5 C 193.585,339.216 191.919,339.549 190.5,340.5C 190.5,341.5 190.5,342.5 190.5,343.5C 191.23,345.045 192.563,345.878 194.5,346C 192.09,346.057 190.756,347.224 190.5,349.5C 190.5,350.833 190.5,352.167 190.5,353.5C 193.57,353.632 196.57,353.299 199.5,352.5C 200.735,352.279 201.735,351.612 202.5,350.5C 202.833,351 203.167,351.5 203.5,352C 202.517,354.15 201.184,355.983 199.5,357.5C 194.833,357.5 190.167,357.5 185.5,357.5C 185.5,350.5 185.5,343.5 185.5,336.5C 190.214,336.173 194.88,336.507 199.5,337.5C 198.051,338.172 196.718,338.839 195.5,339.5 Z"/></g>
<g><path style="opacity:0.267" fill="#76869d" d="M 115.5,341.5 C 113.832,343.479 113.166,345.812 113.5,348.5C 112.378,346.712 112.211,344.712 113,342.5C 113.671,341.748 114.504,341.414 115.5,341.5 Z"/></g>
<g><path style="opacity:0.941" fill="#9aadc2" d="M 135.5,342.5 C 135.498,346.165 134.165,349.165 131.5,351.5C 132.042,348.088 133.375,345.088 135.5,342.5 Z"/></g>
<g><path style="opacity:0.973" fill="#a9b9c8" d="M 228.5,338.5 C 233.013,342.95 233.513,347.95 230,353.5C 229.292,354.381 228.458,355.047 227.5,355.5C 228.488,352.172 229.488,348.839 230.5,345.5C 230.559,342.891 229.892,340.557 228.5,338.5 Z"/></g>
<g><path style="opacity:1" fill="#b5c1d0" d="M 285.5,340.5 C 288.431,345.749 291.098,351.249 293.5,357C 290.095,358.102 287.428,357.268 285.5,354.5C 282.232,353.513 278.898,353.18 275.5,353.5C 278.563,352.799 281.73,352.132 285,351.5C 286.596,347.937 286.763,344.271 285.5,340.5 Z"/></g>
<g><path style="opacity:1" fill="#92a2b4" d="M 108.5,341.5 C 108.672,346.348 109.672,351.015 111.5,355.5C 108.231,353.577 106.564,350.577 106.5,346.5C 106.801,344.578 107.467,342.912 108.5,341.5 Z"/></g>
<g><path style="opacity:0.602" fill="#7e8eab" d="M 179.5,357.5 C 179.5,350.5 179.5,343.5 179.5,336.5C 178.167,336.5 176.833,336.5 175.5,336.5C 175.715,338.179 175.048,339.179 173.5,339.5C 173.491,336.864 174.825,335.531 177.5,335.5C 179.286,335.696 180.619,336.529 181.5,338C 181.088,341.293 181.088,344.793 181.5,348.5C 181.483,351.913 180.816,354.913 179.5,357.5 Z"/></g>
<g><path style="opacity:0.578" fill="#aebacb" d="M 142.5,344.5 C 145.128,345.255 145.795,346.755 144.5,349C 142.098,349.814 139.765,349.647 137.5,348.5C 137.624,347.893 137.957,347.56 138.5,347.5C 140.035,348.788 141.701,348.788 143.5,347.5C 142.873,346.583 142.539,345.583 142.5,344.5 Z"/></g>
<g><path style="opacity:0.89" fill="#9aadc2" d="M 254.5,339.5 C 256.548,341.456 257.548,343.956 257.5,347C 257.607,349.221 256.94,351.054 255.5,352.5C 255.706,348.102 255.373,343.768 254.5,339.5 Z"/></g>
<g><path style="opacity:0.416" fill="#607999" d="M 235.5,335.5 C 235.5,335.833 235.5,336.167 235.5,336.5C 235.5,343.5 235.5,350.5 235.5,357.5C 234.438,353.369 233.771,349.036 233.5,344.5C 233.447,341.215 234.114,338.215 235.5,335.5 Z"/></g>
<g><path style="opacity:0.484" fill="#768da7" d="M 245.5,339.5 C 245.5,339.833 245.5,340.167 245.5,340.5C 243.833,340.5 242.167,340.5 240.5,340.5C 240.5,344.5 240.5,348.5 240.5,352.5C 242.833,352.5 245.167,352.5 247.5,352.5C 247.5,352.833 247.5,353.167 247.5,353.5C 244.833,353.5 242.167,353.5 239.5,353.5C 239.5,348.833 239.5,344.167 239.5,339.5C 241.5,339.5 243.5,339.5 245.5,339.5 Z"/></g>
<g><path style="opacity:0.999" fill="#c7d3de" d="M 146.5,353.5 C 147.5,353.5 148.5,353.5 149.5,353.5C 147.901,349.36 146.234,345.027 144.5,340.5C 143.914,340.291 143.414,339.957 143,339.5C 142.506,341.134 142.34,342.801 142.5,344.5C 141.778,344.082 141.278,343.416 141,342.5C 140.626,344.491 139.793,346.158 138.5,347.5C 140.484,344.139 139.484,342.472 135.5,342.5C 135.73,336.339 138.73,334.339 144.5,336.5C 147.5,343.167 150.5,349.833 153.5,356.5C 151.579,357.641 149.579,357.808 147.5,357C 146.663,355.989 146.33,354.822 146.5,353.5 Z"/></g>
<g><path style="opacity:0.18" fill="#4b637c" d="M 146.5,353.5 C 142.731,353.244 139.064,353.577 135.5,354.5C 136.871,353.213 138.705,352.547 141,352.5C 143.033,352.506 144.866,352.839 146.5,353.5 Z"/></g>
<g><path style="opacity:0.998" fill="#f2f6f9" d="M 228.5,338.5 C 229.892,340.557 230.559,342.891 230.5,345.5C 229.488,348.839 228.488,352.172 227.5,355.5C 226.22,356.931 224.553,357.598 222.5,357.5C 220.5,357.5 218.5,357.5 216.5,357.5C 214.62,357.771 213.287,357.104 212.5,355.5C 212.756,353.088 211.756,351.421 209.5,350.5C 210.792,348.333 211.625,346 212,343.5C 212.198,345.382 212.698,347.048 213.5,348.5C 214.167,349.5 214.833,350.5 215.5,351.5C 218.715,355.395 222.215,355.395 226,351.5C 226.534,347.141 226.368,342.808 225.5,338.5C 226.5,338.5 227.5,338.5 228.5,338.5 Z"/></g>
<g><path style="opacity:0.318" fill="#3e4e73" d="M 116.5,357.5 C 118.5,357.5 120.5,357.5 122.5,357.5C 121.866,358.947 120.699,359.613 119,359.5C 117.624,359.316 116.791,358.649 116.5,357.5 Z"/></g>
<g><path style="opacity:0.365" fill="#4a5a75" d="M 216.5,357.5 C 218.5,357.5 220.5,357.5 222.5,357.5C 220.642,359.731 218.642,359.731 216.5,357.5 Z"/></g>
<g><path style="opacity:0.378" fill="#70819e" d="M 296.5,335.5 C 296.5,342.833 296.5,350.167 296.5,357.5C 304.833,357.5 313.167,357.5 321.5,357.5C 324.5,357.5 327.5,357.5 330.5,357.5C 330.5,350.5 330.5,343.5 330.5,336.5C 330.5,336.167 330.5,335.833 330.5,335.5C 331.492,342.982 331.825,350.648 331.5,358.5C 319.495,358.667 307.495,358.5 295.5,358C 294.878,356.431 294.544,354.764 294.5,353C 294.944,346.992 295.61,341.158 296.5,335.5 Z"/></g>
<g><path style="opacity:0.118" fill="#43566b" d="M 299.5,351.5 C 299.5,351.167 299.5,350.833 299.5,350.5C 309.015,350.173 318.348,350.506 327.5,351.5C 323.629,351.185 319.962,351.518 316.5,352.5C 313.5,352.5 310.5,352.5 307.5,352.5C 307.167,351.167 306.833,351.167 306.5,352.5C 304.5,352.5 302.5,352.5 300.5,352.5C 300.5,351.833 300.167,351.5 299.5,351.5 Z"/></g>
<g><path style="opacity:1" fill="#dee6f0" d="M 330.5,336.5 C 330.5,343.5 330.5,350.5 330.5,357.5C 327.5,357.5 324.5,357.5 321.5,357.5C 323.607,356.532 325.941,356.198 328.5,356.5C 328.5,355.5 328.5,354.5 328.5,353.5C 318.652,353.827 308.986,353.494 299.5,352.5C 299.833,352.5 300.167,352.5 300.5,352.5C 302.5,352.5 304.5,352.5 306.5,352.5C 306.833,352.5 307.167,352.5 307.5,352.5C 310.5,352.5 313.5,352.5 316.5,352.5C 320.371,352.815 324.038,352.482 327.5,351.5C 318.348,350.506 309.015,350.173 299.5,350.5C 300.904,347.623 303.237,345.956 306.5,345.5C 313.321,344.671 320.321,344.171 327.5,344C 322.649,343.826 317.982,343.326 313.5,342.5C 332.167,342.167 332.167,341.833 313.5,341.5C 320.044,340.472 325.71,338.806 330.5,336.5 Z"/></g>
<g><path style="opacity:0.267" fill="#627a98" d="M 306.5,345.5 C 313.687,345.175 320.687,345.509 327.5,346.5C 320.646,346.176 313.979,346.509 307.5,347.5C 306.662,347.158 306.328,346.492 306.5,345.5 Z"/></g>
<g><path style="opacity:0.999" fill="#fafdfd" d="M 296.5,335.5 C 307.833,335.5 319.167,335.5 330.5,335.5C 330.5,335.833 330.5,336.167 330.5,336.5C 325.71,338.806 320.044,340.472 313.5,341.5C 313.5,341.833 313.5,342.167 313.5,342.5C 317.982,343.326 322.649,343.826 327.5,344C 320.321,344.171 313.321,344.671 306.5,345.5C 303.237,345.956 300.904,347.623 299.5,350.5C 299.5,350.833 299.5,351.167 299.5,351.5C 299.5,351.833 299.5,352.167 299.5,352.5C 308.986,353.494 318.652,353.827 328.5,353.5C 328.5,354.5 328.5,355.5 328.5,356.5C 325.941,356.198 323.607,356.532 321.5,357.5C 313.167,357.5 304.833,357.5 296.5,357.5C 296.5,350.167 296.5,342.833 296.5,335.5 Z"/></g>
</svg>
